#!OML:ASF F:\VICON\USERDATA\INSTALL\rory3\rory3.ASF
:FULLY-SPECIFIED
:DEGREES
2363
root -4.55746 22.2439 -0.82247 -540.886 -153.755 540.002
lowerback 5.48797 0.902898 -2.34069
upperback -4.44103 0.634418 -4.67797
thorax -7.7341 0.276348 -3.69816
lowerneck -14.908 -12.5212 -15.849
upperneck -9.68841 -13.9903 14.3832
head 1.58857 -6.39684 5.90668
rclavicle -6.52014e-014 1.43125e-014
rhumerus 78.6497 -15.9634 -25.141
rradius 29.7695
rwrist 3.70925
rhand -4.43425 3.61494
rfingers 7.12502
rthumb 21.3369 -25.2304
lclavicle -6.52014e-014 1.43125e-014
lhumerus 59.3923 -8.87699 14.9285
lradius 85.6401
lwrist 16.5378
lhand -7.64202 17.932
lfingers 7.12502
lthumb 18.2533 47.0956
rfemur -6.05155 2.73116 22.3054
rtibia 27.2073
rfoot 4.23316 -19.6022
rtoes 7.79153
lfemur -24.3315 -6.44652 -2.29801
ltibia 40.362
lfoot 8.18414 -4.01037
ltoes -16.4413
2364
root -4.58102 22.1387 -0.859967 -540.773 -154.034 539.983
lowerback 5.5428 0.992257 -2.21631
upperback -4.44443 0.766988 -4.63523
thorax -7.76177 0.336442 -3.74055
lowerneck -14.8043 -12.511 -15.9814
upperneck -9.74273 -13.9666 14.4339
head 1.56773 -6.38331 5.95103
rclavicle 9.14409e-015 2.8625e-014
rhumerus 78.2742 -15.269 -25.5553
rradius 29.9437
rwrist 4.6887
rhand -5.37455 3.66264
rfingers 7.12502
rthumb 20.4335 -25.2822
lclavicle 9.14409e-015 2.8625e-014
lhumerus 58.8104 -7.26034 15.3353
lradius 85.9188
lwrist 17.6023
lhand -7.09916 17.8809
lfingers 7.12502
lthumb 18.7755 46.9948
rfemur -6.07074 2.76145 21.9467
rtibia 26.7977
rfoot 3.59415 -20.0754
rtoes 9.34435
lfemur -24.427 -6.67358 -2.15705
ltibia 40.3474
lfoot 8.41209 -4.02269
ltoes -15.815
2365
root -4.60859 22.0221 -0.900078 -540.59 -154.431 539.945
lowerback 5.51847 1.05704 -2.10222
upperback -4.35454 0.870242 -4.65424
thorax -7.64347 0.382022 -3.83338
lowerneck -15.0254 -12.5784 -16.1006
upperneck -9.79061 -13.9988 14.716
head 1.62545 -6.38398 6.0412
rclavicle -4.07509e-014 -2.54444e-014
rhumerus 77.8507 -14.7915 -25.9828
rradius 30.0818
rwrist 5.40322
rhand -6.89641 4.09304
rfingers 7.12502
rthumb 18.9704 -25.0019
lclavicle -4.07509e-014 -2.54444e-014
lhumerus 58.4465 -5.44541 15.6392
lradius 86.1287
lwrist 18.5359
lhand -6.59227 18.0196
lfingers 7.12502
lthumb 19.2629 47.0856
rfemur -6.11137 2.78348 21.6385
rtibia 26.3548
rfoot 2.8485 -20.5053
rtoes 11.0507
lfemur -24.6547 -7.04773 -1.97059
ltibia 40.3649
lfoot 8.73877 -3.90408
ltoes -15.382
2366
root -4.63897 21.8955 -0.939508 -540.418 -154.751 540.059
lowerback 5.38892 1.1307 -2.1817
upperback -4.21898 0.975431 -4.67157
thorax -7.41813 0.439849 -3.80982
lowerneck -15.5865 -12.6594 -16.2611
upperneck -9.64352 -14.0016 15.063
head 1.79488 -6.35491 6.13936
rclavicle -4.65156e-014 3.02153e-014
rhumerus 77.2977 -14.5036 -25.9651
rradius 30.4591
rwrist 5.92525
rhand -8.50754 4.36468
rfingers 7.12502
rthumb 17.4204 -24.8747
lclavicle -4.65156e-014 3.02153e-014
lhumerus 58.0902 -3.5017 15.9077
lradius 86.0914
lwrist 19.2608
lhand -6.37328 18.2432
lfingers 7.12502
lthumb 19.4735 47.288
rfemur -6.22635 2.80113 21.1616
rtibia 25.9343
rfoot 2.07345 -21.0014
rtoes 12.6684
lfemur -24.8697 -7.26883 -1.97007
ltibia 40.3702
lfoot 8.99092 -3.8377
ltoes -15.1711
2367
root -4.66389 21.7533 -0.976972 -540.216 -155.084 539.925
lowerback 5.35498 1.17012 -1.9858
upperback -4.12894 1.06084 -4.5719
thorax -7.29441 0.476962 -3.81942
lowerneck -15.7812 -12.7139 -16.4966
upperneck -9.69374 -13.9983 15.1434
head 1.82874 -6.33677 6.19245
rclavicle -1.09332e-014 -4.77083e-014
rhumerus 76.6696 -14.0629 -25.6866
rradius 30.9907
rwrist 6.44942
rhand -10.3295 4.31989
rfingers 7.12502
rthumb 15.6663 -25.0658
lclavicle -1.09332e-014 -4.77083e-014
lhumerus 57.5316 -1.70378 16.1744
lradius 85.922
lwrist 19.7065
lhand -6.76925 18.1702
lfingers 7.12502
lthumb 19.0927 47.2531
rfemur -6.27514 2.75307 20.9307
rtibia 25.5191
rfoot 1.42998 -21.67
rtoes 12.819
lfemur -25.0283 -7.3313 -1.76455
ltibia 40.3974
lfoot 9.21142 -4.00744
ltoes -15.5424
2368
root -4.68987 21.6028 -1.01605 -540.172 -155.398 539.962
lowerback 5.48726 1.22078 -2.00242
upperback -4.12916 1.13104 -4.44476
thorax -7.36992 0.516272 -3.68764
lowerneck -15.1304 -12.6302 -15.4467
upperneck -10.738 -14.0885 13.6538
head 1.21598 -6.44952 5.64616
rclavicle 2.3059e-014 1.27222e-014
rhumerus 75.8747 -13.4539 -25.2394
rradius 31.7295
rwrist 6.95059
rhand -12.1007 4.34048
rfingers 7.12502
rthumb 13.96 -25.1708
lclavicle 2.3059e-014 1.27222e-014
lhumerus 56.9119 -0.0799033 16.4269
lradius 85.6237
lwrist 20.0079
lhand -7.22597 18.0991
lfingers 7.12502
lthumb 18.6535 47.2248
rfemur -6.24161 2.94942 20.5454
rtibia 25.1178
rfoot 1.01695 -22.4266
rtoes 13.0717
lfemur -25.0508 -7.3801 -1.76387
ltibia 40.4138
lfoot 9.46853 -4.26625
ltoes -15.9707
2369
root -4.71524 21.4469 -1.0539 -540.155 -155.692 539.964
lowerback 5.68509 1.24884 -1.98727
upperback -4.17048 1.17077 -4.28987
thorax -7.52928 0.539083 -3.54489
lowerneck -14.9259 -12.6566 -15.6772
upperneck -10.6923 -14.1202 13.5975
head 1.21294 -6.46383 5.66711
rclavicle 1.82882e-014 2.70347e-014
rhumerus 75.0257 -12.7921 -24.6633
rradius 32.613
rwrist 7.18288
rhand -13.6685 4.45958
rfingers 7.12502
rthumb 12.4487 -25.1497
lclavicle 1.82882e-014 2.70347e-014
lhumerus 56.1421 1.45047 16.643
lradius 85.2681
lwrist 20.4936
lhand -7.7304 18.1112
lfingers 7.12502
lthumb 18.1682 47.2827
rfemur -6.14208 3.30305 20.2008
rtibia 24.7438
rfoot 0.617019 -23.6047
rtoes 14.4628
lfemur -24.9875 -7.42813 -1.77458
ltibia 40.4529
lfoot 9.79728 -4.53269
ltoes -16.3223
2370
root -4.74071 21.2762 -1.09011 -540.082 -156.022 539.986
lowerback 5.72853 1.2446 -1.97967
upperback -4.19622 1.17246 -4.16502
thorax -7.58368 0.543432 -3.41922
lowerneck -14.8744 -12.5649 -15.9762
upperneck -10.3454 -13.9776 13.7554
head 1.32614 -6.3852 5.76452
rclavicle -3.55825e-014 -4.77083e-015
rhumerus 74.2039 -12.1592 -24.1293
rradius 33.5163
rwrist 7.48945
rhand -15.6718 4.28624
rfingers 7.12502
rthumb 10.5167 -25.4307
lclavicle -3.55825e-014 -4.77083e-015
lhumerus 55.2562 2.98704 16.7906
lradius 84.8498
lwrist 20.8152
lhand -8.17585 18.0161
lfingers 7.12502
lthumb 17.7396 47.2269
rfemur -6.12092 3.34419 19.8292
rtibia 24.4301
rfoot 0.0563162 -24.577
rtoes 16.8514
lfemur -25.0065 -7.63393 -1.7736
ltibia 40.5144
lfoot 10.4149 -4.4486
ltoes -14.7737
2371
root -4.76533 21.0853 -1.12952 -540.041 -156.318 540.123
lowerback 5.71814 1.26767 -2.07105
upperback -4.05572 1.20627 -4.11981
thorax -7.42795 0.567988 -3.3182
lowerneck -14.5583 -12.4791 -15.5035
upperneck -11.3551 -13.9344 13.2903
head 0.897394 -6.38869 5.6147
rclavicle -9.57148e-014 -4.29375e-014
rhumerus 73.3692 -11.8699 -23.5841
rradius 34.4707
rwrist 7.83764
rhand -18.1196 3.74814
rfingers 7.12502
rthumb 8.1549 -26.0745
lclavicle -9.57148e-014 -4.29375e-014
lhumerus 54.6165 4.76104 16.9778
lradius 84.2833
lwrist 21.0175
lhand -8.43978 18.3249
lfingers 7.12502
lthumb 17.4856 47.5585
rfemur -6.11289 3.43888 19.3841
rtibia 24.1577
rfoot -0.50486 -24.2342
rtoes 17.5476
lfemur -25.0525 -7.79086 -1.8805
ltibia 40.6181
lfoot 11.252 -4.26513
ltoes -12.6118
2372
root -4.79021 20.881 -1.16828 -539.952 -156.606 540.074
lowerback 5.72025 1.29454 -2.00298
upperback -3.8946 1.26363 -4.02874
thorax -7.25378 0.597554 -3.26086
lowerneck -14.4899 -12.4067 -15.3215
upperneck -12.2321 -13.8316 13.2611
head 0.598197 -6.34262 5.62885
rclavicle -4.96962e-015 1.43125e-014
rhumerus 72.4833 -11.6229 -23.197
rradius 35.5612
rwrist 8.06478
rhand -19.7963 3.39291
rfingers 7.12502
rthumb 6.53644 -26.4862
lclavicle -4.96962e-015 1.43125e-014
lhumerus 53.9992 6.53348 17.03
lradius 83.796
lwrist 21.2844
lhand -8.84824 18.7396
lfingers 7.12502
lthumb 17.0925 48.0077
rfemur -6.08768 3.606 19.1463
rtibia 23.9575
rfoot 1.14005 -24.5736
rtoes 17.4344
lfemur -25.079 -7.74754 -1.83783
ltibia 40.7586
lfoot 12.104 -4.43395
ltoes -11.6474
2373
root -4.8169 20.6684 -1.20852 -539.925 -157.004 540.127
lowerback 5.75504 1.2889 -2.09338
upperback -3.69956 1.26334 -3.92775
thorax -7.06913 0.606741 -3.09728
lowerneck -15.531 -12.4414 -15.1321
upperneck -11.6618 -13.7764 12.9395
head 0.862188 -6.29138 5.44145
rclavicle -7.37491e-014 4.6118e-014
rhumerus 71.63 -11.4521 -22.9828
rradius 36.83
rwrist 8.19604
rhand -20.4537 3.16983
rfingers 7.12502
rthumb 5.90183 -26.728
lclavicle -7.37491e-014 4.6118e-014
lhumerus 53.322 8.22323 17.0107
lradius 83.1818
lwrist 21.1609
lhand -9.89008 18.6732
lfingers 7.12502
lthumb 16.0895 48.0253
rfemur -6.09006 3.73891 18.8119
rtibia 23.8727
rfoot 2.674 -24.9016
rtoes 18.0056
lfemur -25.1139 -7.8339 -1.91302
ltibia 40.8995
lfoot 12.9463 -4.77886
ltoes -11.3244
2374
root -4.84246 20.4478 -1.24682 -539.963 -157.321 540.195
lowerback 5.82157 1.29859 -2.22116
upperback -3.50814 1.28077 -3.78997
thorax -6.90816 0.626701 -2.87756
lowerneck -16.1267 -12.4525 -14.8177
upperneck -11.515 -13.7633 12.4207
head 0.915027 -6.28048 5.21042
rclavicle 4.77083e-014 -1.59028e-015
rhumerus 70.9286 -11.1948 -23.0583
rradius 38.0844
rwrist 8.38713
rhand -20.9168 3.14531
rfingers 7.12502
rthumb 5.45471 -26.7645
lclavicle 4.77083e-014 -1.59028e-015
lhumerus 52.5985 9.76945 16.9868
lradius 82.3824
lwrist 20.7714
lhand -11.0934 18.5003
lfingers 7.12502
lthumb 14.9306 47.9421
rfemur -6.1323 3.78468 18.4299
rtibia 23.8988
rfoot 4.65765 -25.2614
rtoes 19.1786
lfemur -25.0137 -7.95019 -2.03454
ltibia 41.0359
lfoot 13.6895 -5.40331
ltoes -11.9402
2375
root -4.8693 20.2187 -1.28129 -539.966 -157.61 540.205
lowerback 5.87058 1.27645 -2.30767
upperback -3.57113 1.25204 -3.59435
thorax -7.01008 0.621999 -2.62302
lowerneck -15.538 -12.2194 -14.9482
upperneck -11.8092 -13.5107 12.3601
head 0.718368 -6.1674 5.27754
rclavicle 2.11706e-014 -4.45278e-014
rhumerus 70.256 -10.3678 -23.2668
rradius 39.2729
rwrist 8.32232
rhand -21.081 3.34683
rfingers 7.12502
rthumb 5.29612 -26.567
lclavicle 2.11706e-014 -4.45278e-014
lhumerus 51.6986 10.9185 17.0187
lradius 81.4241
lwrist 20.4225
lhand -11.7583 18.6642
lfingers 7.12502
lthumb 14.2899 48.1525
rfemur -6.28089 3.89165 18.093
rtibia 24.0723
rfoot 6.77244 -25.6648
rtoes 20.1202
lfemur -24.8837 -8.0808 -2.09131
ltibia 41.183
lfoot 14.4259 -6.09536
ltoes -12.137
2376
root -4.89517 19.9744 -1.31994 -539.986 -157.981 540.206
lowerback 5.85275 1.2211 -2.34431
upperback -3.44522 1.19132 -3.45218
thorax -6.87023 0.598499 -2.44086
lowerneck -15.3621 -12.1157 -15.0901
upperneck -12.039 -13.366 12.4781
head 0.627774 -6.09452 5.36621
rclavicle -4.76089e-014 3.65764e-014
rhumerus 69.5702 -9.93294 -23.6036
rradius 40.5942
rwrist 7.96234
rhand -20.8084 3.74639
rfingers 7.12502
rthumb 5.55931 -26.1607
lclavicle -4.76089e-014 3.65764e-014
lhumerus 51.04 12.4385 16.8873
lradius 80.4572
lwrist 20.2027
lhand -12.342 18.7718
lfingers 7.12502
lthumb 13.7274 48.299
rfemur -6.4034 4.16249 17.8125
rtibia 24.4436
rfoot 7.58599 -25.8646
rtoes 20.786
lfemur -24.8032 -8.31605 -2.13155
ltibia 41.3816
lfoot 15.3463 -6.81255
ltoes -11.3656
2377
root -4.92099 19.7108 -1.36493 -540.023 -158.37 540.185
lowerback 5.82971 1.17309 -2.41976
upperback -3.1894 1.14361 -3.29494
thorax -6.59004 0.583238 -2.2192
lowerneck -15.5207 -12.1261 -15.2738
upperneck -12.1832 -13.3158 12.695
head 0.631552 -6.05705 5.46217
rclavicle 6.95746e-015 -1.11319e-014
rhumerus 68.7379 -9.78717 -23.6501
rradius 42.1562
rwrist 7.21936
rhand -20.5628 4.08549
rfingers 7.12502
rthumb 5.79647 -25.8152
lclavicle 6.95746e-015 -1.11319e-014
lhumerus 50.3903 14.0766 16.6036
lradius 79.4576
lwrist 19.7852
lhand -13.5843 18.3848
lfingers 7.12502
lthumb 12.5299 47.9892
rfemur -6.46456 4.60006 17.6169
rtibia 25.0721
rfoot 6.45703 -25.3035
rtoes 19.1416
lfemur -24.7441 -8.57874 -2.15416
ltibia 41.6673
lfoot 16.1329 -7.80752
ltoes -11.1594
